<mxfile host="app.diagrams.net" agent="Mozilla/5.0 (X11; Linux x86_64; rv:130.0) Gecko/20100101 Firefox/130.0" version="24.7.12">
  <diagram name="Seite-1" id="sB4p62nrwVd86XO2K_Cy">
    <mxGraphModel dx="478" dy="374" grid="1" gridSize="10" guides="1" tooltips="1" connect="1" arrows="1" fold="1" page="1" pageScale="1" pageWidth="827" pageHeight="1169" math="0" shadow="0">
      <root>
        <mxCell id="0" />
        <mxCell id="1" parent="0" />
        <mxCell id="77hK2U9cgVGzca_YEiAG-3" value="" style="group" vertex="1" connectable="0" parent="1">
          <mxGeometry x="20" y="110" width="60" height="30" as="geometry" />
        </mxCell>
        <mxCell id="77hK2U9cgVGzca_YEiAG-1" value="" style="triangle;whiteSpace=wrap;html=1;" vertex="1" parent="77hK2U9cgVGzca_YEiAG-3">
          <mxGeometry width="30" height="30" as="geometry" />
        </mxCell>
        <mxCell id="77hK2U9cgVGzca_YEiAG-2" value="" style="triangle;whiteSpace=wrap;html=1;rotation=-180;" vertex="1" parent="77hK2U9cgVGzca_YEiAG-3">
          <mxGeometry x="30" width="30" height="30" as="geometry" />
        </mxCell>
        <mxCell id="77hK2U9cgVGzca_YEiAG-4" value="" style="triangle;whiteSpace=wrap;html=1;" vertex="1" parent="1">
          <mxGeometry x="20" y="160" width="30" height="30" as="geometry" />
        </mxCell>
        <mxCell id="77hK2U9cgVGzca_YEiAG-5" value="" style="triangle;whiteSpace=wrap;html=1;rotation=-180;" vertex="1" parent="1">
          <mxGeometry x="50" y="160" width="30" height="30" as="geometry" />
        </mxCell>
        <mxCell id="77hK2U9cgVGzca_YEiAG-6" value="" style="endArrow=none;html=1;rounded=0;entryX=0.003;entryY=0.985;entryDx=0;entryDy=0;entryPerimeter=0;" edge="1" parent="1" target="77hK2U9cgVGzca_YEiAG-4">
          <mxGeometry width="50" height="50" relative="1" as="geometry">
            <mxPoint x="20" y="220" as="sourcePoint" />
            <mxPoint x="21" y="189" as="targetPoint" />
          </mxGeometry>
        </mxCell>
        <mxCell id="77hK2U9cgVGzca_YEiAG-7" value="" style="endArrow=none;html=1;rounded=0;" edge="1" parent="1">
          <mxGeometry width="50" height="50" relative="1" as="geometry">
            <mxPoint x="10" y="210" as="sourcePoint" />
            <mxPoint x="30" y="210" as="targetPoint" />
          </mxGeometry>
        </mxCell>
        <mxCell id="77hK2U9cgVGzca_YEiAG-8" value="" style="group" vertex="1" connectable="0" parent="1">
          <mxGeometry x="20" y="240" width="60" height="30" as="geometry" />
        </mxCell>
        <mxCell id="77hK2U9cgVGzca_YEiAG-9" value="" style="triangle;whiteSpace=wrap;html=1;" vertex="1" parent="77hK2U9cgVGzca_YEiAG-8">
          <mxGeometry width="30" height="30" as="geometry" />
        </mxCell>
        <mxCell id="77hK2U9cgVGzca_YEiAG-10" value="" style="triangle;whiteSpace=wrap;html=1;rotation=-180;" vertex="1" parent="77hK2U9cgVGzca_YEiAG-8">
          <mxGeometry x="30" width="30" height="30" as="geometry" />
        </mxCell>
        <mxCell id="77hK2U9cgVGzca_YEiAG-11" value="" style="endArrow=none;html=1;rounded=0;exitX=1;exitY=0.5;exitDx=0;exitDy=0;" edge="1" parent="1" source="77hK2U9cgVGzca_YEiAG-9">
          <mxGeometry width="50" height="50" relative="1" as="geometry">
            <mxPoint x="50" y="250" as="sourcePoint" />
            <mxPoint x="50" y="230" as="targetPoint" />
          </mxGeometry>
        </mxCell>
        <mxCell id="77hK2U9cgVGzca_YEiAG-12" value="" style="endArrow=none;html=1;rounded=0;" edge="1" parent="1">
          <mxGeometry width="50" height="50" relative="1" as="geometry">
            <mxPoint x="40" y="230" as="sourcePoint" />
            <mxPoint x="60" y="230" as="targetPoint" />
          </mxGeometry>
        </mxCell>
        <mxCell id="77hK2U9cgVGzca_YEiAG-13" value="" style="endArrow=none;html=1;rounded=0;" edge="1" parent="1">
          <mxGeometry width="50" height="50" relative="1" as="geometry">
            <mxPoint x="30" y="226" as="sourcePoint" />
            <mxPoint x="70" y="226" as="targetPoint" />
          </mxGeometry>
        </mxCell>
        <mxCell id="77hK2U9cgVGzca_YEiAG-14" value="" style="endArrow=none;html=1;rounded=0;" edge="1" parent="1">
          <mxGeometry width="50" height="50" relative="1" as="geometry">
            <mxPoint x="30" y="235" as="sourcePoint" />
            <mxPoint x="30" y="225" as="targetPoint" />
          </mxGeometry>
        </mxCell>
        <mxCell id="77hK2U9cgVGzca_YEiAG-15" value="" style="endArrow=none;html=1;rounded=0;" edge="1" parent="1">
          <mxGeometry width="50" height="50" relative="1" as="geometry">
            <mxPoint x="40" y="226" as="sourcePoint" />
            <mxPoint x="70" y="226" as="targetPoint" />
          </mxGeometry>
        </mxCell>
        <mxCell id="77hK2U9cgVGzca_YEiAG-17" value="" style="endArrow=none;html=1;rounded=0;" edge="1" parent="1">
          <mxGeometry width="50" height="50" relative="1" as="geometry">
            <mxPoint x="30" y="230" as="sourcePoint" />
            <mxPoint x="30" y="230" as="targetPoint" />
          </mxGeometry>
        </mxCell>
        <mxCell id="77hK2U9cgVGzca_YEiAG-18" value="" style="endArrow=none;html=1;rounded=0;" edge="1" parent="1">
          <mxGeometry width="50" height="50" relative="1" as="geometry">
            <mxPoint x="70" y="235" as="sourcePoint" />
            <mxPoint x="70" y="225" as="targetPoint" />
          </mxGeometry>
        </mxCell>
        <mxCell id="77hK2U9cgVGzca_YEiAG-19" value="" style="ellipse;whiteSpace=wrap;html=1;aspect=fixed;" vertex="1" parent="1">
          <mxGeometry x="20" y="280" width="60" height="60" as="geometry" />
        </mxCell>
        <mxCell id="77hK2U9cgVGzca_YEiAG-20" value="" style="endArrow=none;html=1;rounded=0;entryX=1;entryY=0.5;entryDx=0;entryDy=0;exitX=0;exitY=0.5;exitDx=0;exitDy=0;" edge="1" parent="1">
          <mxGeometry width="50" height="50" relative="1" as="geometry">
            <mxPoint x="20.000000000000085" y="313" as="sourcePoint" />
            <mxPoint x="79.99999999999991" y="313" as="targetPoint" />
          </mxGeometry>
        </mxCell>
        <mxCell id="77hK2U9cgVGzca_YEiAG-21" value="" style="endArrow=none;html=1;rounded=0;entryX=1;entryY=0.5;entryDx=0;entryDy=0;exitX=0;exitY=0.5;exitDx=0;exitDy=0;" edge="1" parent="1">
          <mxGeometry width="50" height="50" relative="1" as="geometry">
            <mxPoint x="20" y="306.95" as="sourcePoint" />
            <mxPoint x="80" y="306.95" as="targetPoint" />
          </mxGeometry>
        </mxCell>
      </root>
    </mxGraphModel>
  </diagram>
</mxfile>
